<?xml version="1.0" standalone="no"?>
<svg xmlns="http://www.w3.org/2000/svg" viewBox="0 0 78.786 36" width="78.786" height="36"><g fill="#51be95" color="#51be95" transform="translate(0 3.9999999999999982) scale(0.5600001)"><svg width="50.0" height="50.0" x="0.0" y="0.0" viewBox="0 0 50 50"><path fill="currentColor" fill-rule="evenodd" d="M24.968 0C11.178 0 0 11.178 0 24.968c0 7.13 2.993 13.555 7.784 18.104V28.647h4.083v17.576a24.911 24.911 0 0 0 5.424 2.506V15.22h4.083v34.456c1.174.17 2.373.262 3.594.262.616 0 1.225-.03 1.83-.075V34.606h4.083v14.62a24.785 24.785 0 0 0 5.424-2.014V23.783h4.083V44.6c5.81-4.572 9.549-11.663 9.549-19.63C49.937 11.178 38.757 0 24.967 0"></path></svg></g><path fill="#0466b2" fill-rule="nonzero" d="M1.91 0.26L7.49 0.26Q10.28 0.26 11.77 1.49Q13.25 2.73 13.25 5.00L13.25 5.00Q13.25 6.25 12.56 7.21Q11.87 8.17 10.58 8.72L10.58 8.72Q11.98 9.18 12.59 10.21Q13.21 11.24 13.21 12.75L13.21 12.75L13.21 14.12Q13.21 14.91 13.41 15.28Q13.61 15.66 14.06 15.73L14.06 15.73L14.63 15.80L14.63 17.31L13.38 17.31Q12.04 17.31 11.47 16.37Q10.90 15.43 10.90 14.10L10.90 14.10L10.90 12.77Q10.90 11.38 10.09 10.54Q9.28 9.69 7.92 9.69L7.92 9.69L4.22 9.69L4.22 15.50L6.13 15.83L6.13 17.31L0 17.31L0 15.83L1.91 15.50L1.91 2.06L0 1.73L0 0.26L1.91 0.26ZM4.22 2.06L4.22 7.88L7.25 7.88Q9.19 7.88 10.07 7.14Q10.95 6.40 10.95 4.98L10.95 4.98Q10.95 3.63 10.10 2.85Q9.26 2.06 7.49 2.06L7.49 2.06L4.22 2.06ZM19.66 9.52L19.66 7.71L21.68 7.71Q23.21 7.71 23.85 6.94Q24.49 6.18 24.49 4.80L24.49 4.80Q24.49 3.34 23.77 2.58Q23.04 1.82 21.62 1.82L21.62 1.82Q20.27 1.82 19.46 2.61Q18.64 3.40 18.64 4.71L18.64 4.71L16.43 4.71L16.41 4.64Q16.35 2.71 17.81 1.35Q19.27 0 21.62 0L21.62 0Q23.99 0 25.39 1.26Q26.80 2.52 26.80 4.85L26.80 4.85Q26.80 5.91 26.16 6.96Q25.52 8.00 24.25 8.55L24.25 8.55Q25.78 9.06 26.42 10.14Q27.06 11.21 27.06 12.55L27.06 12.55Q27.06 14.88 25.53 16.22Q24 17.55 21.62 17.55L21.62 17.55Q19.28 17.55 17.75 16.29Q16.23 15.04 16.29 12.88L16.29 12.88L16.32 12.81L18.53 12.81Q18.53 14.16 19.35 14.95Q20.18 15.75 21.62 15.75L21.62 15.75Q23.09 15.75 23.92 14.95Q24.75 14.16 24.75 12.60L24.75 12.60Q24.75 11.02 24.01 10.27Q23.27 9.52 21.68 9.52L21.68 9.52L19.66 9.52ZM42.79 9.26L42.79 15.38Q42.04 16.16 40.57 16.86Q39.11 17.55 36.76 17.55L36.76 17.55Q33.34 17.55 31.18 15.15Q29.02 12.75 29.02 8.92L29.02 8.92L29.02 8.64Q29.02 4.78 31.15 2.39Q33.29 0 36.84 0L36.84 0Q38.74 0 40.18 0.59Q41.61 1.18 42.60 2.16L42.60 2.16L42.60 5.25L40.98 5.25L40.42 2.89Q39.84 2.43 39.03 2.12Q38.21 1.82 37.08 1.82L37.08 1.82Q34.31 1.82 32.82 3.71Q31.32 5.60 31.32 8.61L31.32 8.61L31.32 8.92Q31.32 11.98 32.77 13.86Q34.22 15.75 36.76 15.75L36.76 15.75Q38.16 15.75 39.05 15.46Q39.94 15.16 40.48 14.81L40.48 14.81L40.48 11.07L37.68 10.96L37.68 9.26L42.79 9.26Z" transform="translate(36, 9.346)"></path></svg>